HIERARCHY
ROOT Hips
{
	OFFSET 0.000000 0.000000 0.000000 
	CHANNELS 6 Xposition Yposition Zposition Zrotation Yrotation Xrotation
	JOINT LeftUpLeg
	{
		OFFSET 1.363060 -1.794630 0.839290 
		CHANNELS 3 Zrotation Yrotation Xrotation
		JOINT LeftLeg
		{
			OFFSET 2.448110 -6.726130 0.000000 
			CHANNELS 3 Zrotation Yrotation Xrotation
			JOINT LeftFoot
			{
				OFFSET 2.562200 -7.039590 0.000000 
				CHANNELS 3 Zrotation Yrotation Xrotation
				JOINT LeftToeBase
				{
					OFFSET 0.157640 -0.433110 2.322550 
					CHANNELS 3 Zrotation Yrotation Xrotation
					End Site
					{
						OFFSET 0.000000 0.000000 0.000000 
					}
				}
			}
		}
	}
	JOINT RightUpLeg
	{
		OFFSET -1.305520 -1.794630 0.839290 
		CHANNELS 3 Zrotation Yrotation Xrotation
		JOINT RightLeg
		{
			OFFSET -2.542530 -6.985550 0.000000 
			CHANNELS 3 Zrotation Yrotation Xrotation
			JOINT RightFoot
			{
				OFFSET -2.568260 -7.056230 0.000000 
				CHANNELS 3 Zrotation Yrotation Xrotation
				JOINT RightToeBase
				{
					OFFSET -0.164730 -0.452590 2.363150 
					CHANNELS 3 Zrotation Yrotation Xrotation
					End Site
					{
						OFFSET 0.000000 0.000000 0.000000 
					}
				}
			}
		}
	}
	JOINT Spine
	{
		OFFSET 0.028270 2.035590 -0.193380 
		CHANNELS 3 Zrotation Yrotation Xrotation
		JOINT Spine1
		{
			OFFSET 0.056720 2.048850 -0.042750 
			CHANNELS 3 Zrotation Yrotation Xrotation
			JOINT Neck1
			{
				OFFSET -0.054170 1.746240 0.172020 
				CHANNELS 3 Zrotation Yrotation Xrotation
				JOINT Head
				{
					OFFSET 0.104070 1.761360 -0.123970 
					CHANNELS 3 Zrotation Yrotation Xrotation
					End Site
					{
						OFFSET 0.000000 0.000000 0.000000 
					}
				}
			}
			JOINT LeftArm
			{
				OFFSET 3.362410 1.200890 -0.311210 
				CHANNELS 3 Zrotation Yrotation Xrotation
				JOINT LeftForeArm
				{
					OFFSET 4.983000 -0.000000 -0.000000 
					CHANNELS 3 Zrotation Yrotation Xrotation
					JOINT LeftHand
					{
						OFFSET 3.483560 -0.000000 -0.000000 
						CHANNELS 3 Zrotation Yrotation Xrotation
						JOINT LeftHandIndex1
						{
							OFFSET 0.715260 -0.000000 -0.000000 
							CHANNELS 3 Zrotation Yrotation Xrotation
							End Site
							{
								OFFSET 0.000000 0.000000 0.000000 
							}
						}
					}
				}
			}
			JOINT RightArm
			{
				OFFSET -3.136600 1.374050 -0.404650 
				CHANNELS 3 Zrotation Yrotation Xrotation
				JOINT RightForeArm
				{
					OFFSET -5.241900 -0.000000 -0.000000 
					CHANNELS 3 Zrotation Yrotation Xrotation
					JOINT RightHand
					{
						OFFSET -3.444170 -0.000000 -0.000000 
						CHANNELS 3 Zrotation Yrotation Xrotation
						JOINT RightHandIndex1
						{
							OFFSET -0.622530 -0.000000 -0.000000 
							CHANNELS 3 Zrotation Yrotation Xrotation
							End Site
							{
								OFFSET 0.000000 0.000000 0.000000 
							}
						}
					}
				}
			}
		}
	}
}
MOTION
Frames: 7
Frame Time: 0.041667
0.476727 17.857105 -30.523606 -2.376327 2.045709 3.697495 -11.114945 -1.803225 -7.843006 0.187929 8.260975 21.195889 -3.441845 14.984566 -2.548491 0.192900 -2.828300 -7.801100 17.470507 -1.417276 -10.242422 -1.398393 -9.630559 25.436345 4.542868 -19.999551 -9.509911 -0.018100 0.869000 -2.388500 3.639077 -0.265866 -3.878080 4.184960 -0.070402 -3.894071 1.042706 0.681196 17.632738 -2.853600 0.863300 11.405000 -92.560801 9.093544 23.313895 17.469798 -26.898207 -3.735341 0.117383 0.431868 -4.479301 -7.125000 0.000000 0.000000 85.825423 -7.252650 14.491284 -14.622864 23.793745 -2.969717 -0.005718 -0.562456 -3.525601 7.125000 0.000000 0.000000 
0.512054 17.867327 -30.505446 -2.302231 3.214761 4.026413 -11.237670 -3.409352 -7.598604 0.153282 8.225076 21.078456 -3.582733 15.467743 -2.571651 0.190500 -2.810900 -7.752700 17.311664 -2.220967 -10.756158 -1.381381 -9.579474 25.285788 4.582606 -20.129948 -9.590986 -0.018200 0.871400 -2.395100 3.464785 -0.790521 -4.000582 3.685262 -0.355696 -3.659266 1.062758 0.691332 17.491839 -2.860200 0.871700 11.330300 -92.467268 9.119106 23.317643 17.468291 -26.893110 -3.734196 0.117744 0.431840 -4.537455 -7.125000 0.000000 0.000000 85.930555 -7.281741 14.452712 -14.591881 23.758104 -2.960565 -0.010988 -0.561435 -3.482347 7.125000 0.000000 0.000000 
0.546688 17.874868 -30.487286 -2.227439 4.353138 4.325401 -11.355220 -4.991571 -7.344096 0.126359 8.199104 20.996998 -3.710107 15.902153 -2.612765 0.182900 -2.754900 -7.597100 17.164196 -2.990776 -11.269983 -1.379800 -9.560947 25.240284 4.607673 -20.214486 -9.764654 -0.015800 0.810900 -2.228500 3.293891 -1.300024 -4.090744 3.190595 -0.635687 -3.388165 1.086393 0.658738 17.540158 -2.867800 0.869800 11.348900 -92.363932 9.131471 23.345658 17.496988 -26.923728 -3.742996 0.113841 0.425656 -4.617568 -7.125000 0.000000 0.000000 86.029469 -7.288797 14.442462 -14.582832 23.751816 -2.957968 -0.011799 -0.561347 -3.419251 7.125000 0.000000 0.000000 
0.530512 17.872685 -30.492843 -2.267462 3.838286 4.213561 -11.294662 -4.336740 -7.432333 0.131412 8.195575 20.985747 -3.670501 15.769289 -2.583044 0.187100 -2.786200 -7.683900 17.237625 -2.623968 -11.015011 -1.368848 -9.546701 25.187354 4.606877 -20.212285 -9.656861 -0.016700 0.834400 -2.293300 3.274693 -1.160668 -4.021991 3.198092 -0.563316 -3.401732 1.138389 0.751032 17.391409 -2.843400 0.913800 11.271400 -92.283117 9.138843 23.202027 17.522143 -26.955866 -3.754672 0.116632 0.432046 -4.669827 -7.125000 0.000000 0.000000 86.124175 -7.194450 14.529073 -14.530579 23.688196 -2.939891 -0.013950 -0.560436 -3.257676 7.125000 0.000000 0.000000 
0.535672 17.873678 -30.488576 -2.247626 4.016144 4.271960 -11.321964 -4.612698 -7.381601 0.125125 8.186921 20.958382 -3.699243 15.868233 -2.591943 0.186900 -2.784500 -7.679400 17.206346 -2.733821 -11.095632 -1.367192 -9.540623 25.169904 4.614774 -20.238853 -9.680561 -0.016500 0.830000 -2.281200 3.170422 -1.359526 -4.024347 2.938426 -0.673075 -3.309296 1.173242 0.895118 17.315053 -2.825700 0.986000 11.239500 -92.196213 9.171210 22.972428 17.556956 -26.997083 -3.768319 0.116677 0.433457 -4.739368 -7.125000 0.000000 0.000000 86.226497 -7.115070 14.720097 -14.484909 23.634638 -2.924130 -0.016766 -0.559330 -3.140218 7.125000 0.000000 0.000000 
0.536268 17.873975 -30.486293 -2.238754 4.046145 4.292635 -11.332136 -4.688512 -7.363260 0.122211 8.181763 20.942281 -3.711606 15.911153 -2.599024 0.187200 -2.786300 -7.684200 17.194934 -2.741124 -11.115887 -1.367751 -9.541436 25.173109 4.617617 -20.248568 -9.694770 -0.016400 0.828100 -2.275900 3.069396 -1.536668 -4.014364 2.689930 -0.770815 -3.247744 1.208107 1.101543 17.243891 -2.801700 1.087200 11.215600 -92.112109 9.215347 22.643536 17.599804 -27.048286 -3.785207 0.116692 0.435136 -4.811450 -7.125000 0.000000 0.000000 86.331162 -7.011619 15.006211 -14.434268 23.575148 -2.906239 -0.019647 -0.558010 -3.019530 7.125000 0.000000 0.000000 
0.534184 17.873876 -30.485202 -2.234697 3.988735 4.291849 -11.334099 -4.643994 -7.364097 0.121086 8.178112 20.930931 -3.714229 15.920653 -2.604190 0.187700 -2.790200 -7.695300 17.193678 -2.689797 -11.095034 -1.367623 -9.541824 25.174269 4.618313 -20.251217 -9.694350 -0.016500 0.829800 -2.280600 2.974223 -1.685579 -4.002174 2.463562 -0.852757 -3.215488 1.242491 1.324518 17.174132 -2.775900 1.196000 11.193900 -92.030355 9.268098 22.288280 17.643614 -27.100557 -3.802546 0.116836 0.436970 -4.880081 -7.125000 0.000000 0.000000 86.436334 -6.909777 15.318970 -14.385496 23.517780 -2.888798 -0.022471 -0.556635 -2.908291 7.125000 0.000000 0.000000 
